<?xml version="1.0" standalone="no"?>
<!DOCTYPE svg PUBLIC "-//W3C//DTD SVG 20010904//EN"
 "http://www.w3.org/TR/2001/REC-SVG-20010904/DTD/svg10.dtd">
<svg version="1.0" xmlns="http://www.w3.org/2000/svg"
 width="512.000000pt" height="512.000000pt" viewBox="0 0 512.000000 512.000000"
 preserveAspectRatio="xMidYMid meet">
<metadata>
Created by potrace 1.14, written by Peter Selinger 2001-2017
</metadata>
<g transform="translate(0.000000,512.000000) scale(0.100000,-0.100000)"
fill="#000000" stroke="none">
<path d="M2320 5110 c-593 -57 -1148 -319 -1569 -741 -925 -924 -1004 -2396
-184 -3414 101 -126 319 -338 444 -432 876 -659 2055 -696 2962 -93 766 509
1201 1388 1138 2295 -36 515 -205 972 -513 1383 -92 122 -304 341 -429 441
-362 293 -779 474 -1249 546 -126 19 -468 27 -600 15z m553 -761 c23 -8 37
-19 37 -29 0 -53 -166 -225 -305 -317 -408 -271 -755 -415 -1166 -483 -142
-24 -429 -39 -429 -23 0 25 95 137 172 203 341 291 964 586 1384 655 98 16
247 13 307 -6z m230 -429 c134 -460 187 -657 187 -689 0 -92 -83 -210 -221
-311 -76 -57 -89 -79 -31 -55 72 31 128 69 193 134 71 72 107 135 117 208 l7
48 50 3 c118 8 323 -31 418 -80 162 -82 211 -249 124 -429 -42 -87 -88 -134
-176 -179 -143 -72 -308 -108 -536 -117 -228 -9 -478 17 -1150 121 -163 26
-310 19 -441 -19 -19 -6 -37 17 -144 172 -163 236 -332 461 -417 553 -114 123
-118 116 55 123 518 23 1019 190 1479 493 193 128 383 290 383 328 0 38 29
-47 103 -304z m-1063 -1445 c170 -41 376 -74 655 -107 65 -8 228 -13 400 -13
295 0 364 6 515 49 43 12 106 8 159 -9 33 -10 25 15 -9 28 -30 11 -41 27 -19
27 6 0 40 14 76 31 76 36 68 41 132 -86 87 -171 122 -322 122 -521 0 -71 -3
-137 -6 -145 -5 -14 -19 -13 -118 3 -146 25 -275 21 -334 -10 l-42 -22 -16 30
c-19 37 -62 60 -112 60 -48 0 -77 -16 -48 -25 84 -28 105 -48 105 -102 0 -39
-35 -79 -100 -115 -45 -25 -45 -25 -65 -5 -35 35 -96 57 -161 57 -128 0 -246
-92 -439 -345 -55 -71 -126 -158 -157 -192 -32 -34 -58 -70 -58 -78 0 -39 199
-85 368 -85 204 0 345 45 449 142 54 51 113 150 113 191 0 13 8 17 33 17 17 0
47 9 65 20 l33 21 30 -26 c44 -36 130 -59 196 -51 l55 6 -22 -31 c-73 -102
-223 -231 -355 -304 -87 -49 -232 -100 -341 -121 -132 -24 -365 -15 -494 20
-159 44 -320 130 -451 240 -52 45 -179 184 -179 198 0 4 10 10 23 14 55 16 77
69 33 80 -13 3 -42 0 -65 -6 -36 -9 -47 -8 -73 7 -42 24 -72 85 -72 145 0 56
12 72 69 90 50 16 56 41 16 58 -30 12 -57 11 -92 -4 -14 -6 -19 4 -30 63 -12
70 -12 71 -48 76 -187 30 -287 70 -360 143 -79 79 -99 173 -61 293 37 120 110
222 204 282 124 79 185 81 476 12z m1935 -841 c61 -14 145 -28 188 -31 l77 -6
-26 -36 c-78 -105 -204 -201 -306 -232 -139 -44 -269 -7 -340 96 -15 22 -31
35 -45 35 -28 0 -30 -27 -7 -72 16 -30 15 -32 -7 -49 -35 -27 -46 -23 -53 16
-7 35 -34 59 -52 47 -6 -4 -21 -47 -33 -96 -24 -97 -46 -147 -87 -196 -84 -99
-278 -151 -494 -130 -153 15 -148 8 -81 98 32 42 90 122 129 178 171 243 240
287 420 263 48 -6 90 -16 94 -23 4 -6 29 -11 56 -11 62 0 112 33 147 97 23 42
32 49 78 62 109 31 172 29 342 -10z"/>
<path d="M2529 2277 c-74 -50 -157 -207 -147 -279 7 -50 33 -29 81 66 45 90
92 145 156 187 17 10 22 21 18 32 -9 25 -67 22 -108 -6z"/>
<path d="M1800 2143 c-73 -98 -93 -173 -63 -233 20 -39 47 -50 57 -24 4 10 9
45 11 78 7 83 14 112 40 173 21 47 23 63 5 63 -4 0 -26 -26 -50 -57z"/>
<path d="M3588 2150 c-24 -25 -29 -36 -23 -58 11 -43 34 -62 76 -62 46 0 73
32 71 83 -2 67 -73 88 -124 37z"/>
<path d="M1975 2070 c-11 -18 35 -79 79 -105 50 -29 130 -34 176 -10 50 26 39
45 -27 45 -84 1 -131 14 -167 49 -33 32 -50 38 -61 21z"/>
<path d="M1927 1924 c-12 -12 14 -44 56 -68 49 -28 110 -40 151 -28 47 13 42
30 -11 37 -77 11 -119 24 -146 45 -26 21 -39 24 -50 14z"/>
<path d="M2745 1900 c-11 -12 -19 -36 -19 -55 0 -47 28 -75 74 -75 47 0 74 28
74 77 0 65 -86 100 -129 53z"/>
</g>
</svg>
